name rise44.9368peak50.754fall52.0217.mot
datacolumns 19
datarows 20
range 20.41993000000000 20.45159400000000
endheader
time	ground_force1_vx	ground_force1_vy	ground_force1_vz	ground_force1_px	ground_force1_py	ground_force1_pz	ground_force2_vx	ground_force2_vy	ground_force2_vz	ground_force2_px	ground_force2_py	ground_force2_pz	ground_torque1_x	ground_torque1_y	ground_torque1_z	ground_torque2_x	ground_torque2_y	ground_torque2_z	
20.41993000000000	-7.16005000000000	40.78893100000000	-9.91882600000000	0.35145000000000	0.00000000000000	0.13627700000000	-53.49700200000000	791.84027800000001	-58.73063100000000	0.18231800000000	0.00000000000000	-0.05893700000000	0.00000000000000	-7.01710000000000	0.00000000000000	0.00000000000000	-26.23678900000000	0.00000000000000	
20.42159200000000	-7.79733700000000	48.06254800000000	-11.14302500000000	0.35681500000000	0.00000000000000	0.13748100000000	-54.24255900000000	789.57120899999995	-58.50457300000000	0.18121700000000	0.00000000000000	-0.05888000000000	0.00000000000000	-7.99662000000000	0.00000000000000	0.00000000000000	-26.10777600000000	0.00000000000000	
20.42325700000000	-8.28265000000000	55.49565400000000	-12.24998700000000	0.36160100000000	0.00000000000000	0.13856400000000	-54.99331900000000	787.15057100000001	-58.25091600000000	0.18010900000000	0.00000000000000	-0.05882100000000	0.00000000000000	-8.91640200000000	0.00000000000000	0.00000000000000	-25.97332800000000	0.00000000000000	
20.42492800000000	-8.59569400000000	62.99823100000000	-13.21277700000000	0.36591100000000	0.00000000000000	0.13954600000000	-55.74857400000000	784.57486700000004	-57.96933100000000	0.17899500000000	0.00000000000000	-0.05876000000000	0.00000000000000	-9.75608800000000	0.00000000000000	0.00000000000000	-25.83345000000000	0.00000000000000	
20.42659000000000	-8.72449200000000	70.50068300000000	-14.01332000000000	0.36982400000000	0.00000000000000	0.14044500000000	-56.50754200000000	781.84062800000004	-57.65953200000000	0.17787600000000	0.00000000000000	-0.05869700000000	0.00000000000000	-10.50128000000000	0.00000000000000	0.00000000000000	-25.68815100000000	0.00000000000000	
20.42825900000000	-8.66523100000000	77.95620800000000	-14.64253600000000	0.37340500000000	0.00000000000000	0.14127200000000	-57.26936200000000	778.94442800000002	-57.32128400000000	0.17675200000000	0.00000000000000	-0.05863100000000	0.00000000000000	-11.14377900000000	0.00000000000000	0.00000000000000	-25.53744100000000	0.00000000000000	
20.42992200000000	-8.42147000000000	85.34089400000001	-15.09970800000000	0.37670400000000	0.00000000000000	0.14203700000000	-58.03309700000000	775.88289399999996	-56.95440000000000	0.17562300000000	0.00000000000000	-0.05856300000000	0.00000000000000	-11.68127300000000	0.00000000000000	0.00000000000000	-25.38133400000000	0.00000000000000	
20.43159200000000	-8.00288700000000	92.65192000000000	-15.39128300000000	0.37976300000000	0.00000000000000	0.14275000000000	-58.79773000000000	772.65271800000005	-56.55874400000000	0.17449100000000	0.00000000000000	-0.05849200000000	0.00000000000000	-12.11659500000000	0.00000000000000	0.00000000000000	-25.21984300000000	0.00000000000000	
20.43326000000000	-7.42374200000000	99.90431599999999	-15.52929100000000	0.38261600000000	0.00000000000000	0.14341500000000	-59.56217200000000	769.25067100000001	-56.13423200000000	0.17335500000000	0.00000000000000	-0.05841900000000	0.00000000000000	-12.45669000000000	0.00000000000000	0.00000000000000	-25.05298600000000	0.00000000000000	
20.43493400000000	-6.70122700000000	107.12682700000001	-15.52958500000000	0.38529000000000	0.00000000000000	0.14404000000000	-60.32525500000000	765.67361500000004	-55.68083600000000	0.17221600000000	0.00000000000000	-0.05834300000000	0.00000000000000	-12.71141900000000	0.00000000000000	0.00000000000000	-24.88078200000000	0.00000000000000	
20.43659100000000	-5.85387900000000	114.35736000000000	-15.41007500000000	0.38780800000000	0.00000000000000	0.14462900000000	-61.08573900000000	761.91851899999995	-55.19857900000000	0.17107600000000	0.00000000000000	-0.05826400000000	0.00000000000000	-12.89233300000000	0.00000000000000	0.00000000000000	-24.70324900000000	0.00000000000000	
20.43826300000000	-4.90014800000000	121.63847600000000	-15.18910600000000	0.39018900000000	0.00000000000000	0.14518500000000	-61.84231400000000	757.98246700000004	-54.68754300000000	0.16993400000000	0.00000000000000	-0.05818300000000	0.00000000000000	-13.01152100000000	0.00000000000000	0.00000000000000	-24.52040900000000	0.00000000000000	
20.43992900000000	-3.85722700000000	129.01325900000001	-14.88408000000000	0.39245100000000	0.00000000000000	0.14571300000000	-62.59359800000000	753.86268099999995	-54.14786500000000	0.16879200000000	0.00000000000000	-0.05809900000000	0.00000000000000	-13.08061600000000	0.00000000000000	0.00000000000000	-24.33228600000000	0.00000000000000	
20.44159600000000	-2.74018000000000	136.52183299999999	-14.51039100000000	0.39460500000000	0.00000000000000	0.14621400000000	-63.33814200000000	749.55652799999996	-53.57974100000000	0.16765100000000	0.00000000000000	-0.05801200000000	0.00000000000000	-13.11000100000000	0.00000000000000	0.00000000000000	-24.13890200000000	0.00000000000000	
20.44326100000000	-1.56139300000000	144.19868700000001	-14.08070000000000	0.39666500000000	0.00000000000000	0.14669200000000	-64.07443499999999	745.06153800000004	-52.98342400000000	0.16651100000000	0.00000000000000	-0.05792200000000	0.00000000000000	-13.10825300000000	0.00000000000000	0.00000000000000	-23.94028300000000	0.00000000000000	
20.44492900000000	-0.33032200000000	152.07085499999999	-13.60454700000000	0.39863900000000	0.00000000000000	0.14714800000000	-64.80090300000001	740.37541899999997	-52.35922900000000	0.16537300000000	0.00000000000000	-0.05783000000000	0.00000000000000	-13.08182000000000	0.00000000000000	0.00000000000000	-23.73645500000000	0.00000000000000	
20.44659400000000	0.94648700000000	160.15694800000000	-13.08826900000000	0.40053700000000	0.00000000000000	0.14758400000000	-65.51591600000000	735.49607700000001	-51.70752500000000	0.16423900000000	0.00000000000000	-0.05773400000000	0.00000000000000	-13.03492000000000	0.00000000000000	0.00000000000000	-23.52744400000000	0.00000000000000	
20.44826200000000	2.26516300000000	168.46694800000000	-12.53517400000000	0.40236400000000	0.00000000000000	0.14800100000000	-66.21778999999999	730.42162499999995	-51.02874500000000	0.16310900000000	0.00000000000000	-0.05763500000000	0.00000000000000	-12.96961800000000	0.00000000000000	0.00000000000000	-23.31327900000000	0.00000000000000	
20.44992700000000	3.62411000000000	177.00264400000000	-11.94591400000000	0.40412700000000	0.00000000000000	0.14840200000000	-66.90479200000000	725.15040399999998	-50.32337900000000	0.16198400000000	0.00000000000000	-0.05753300000000	0.00000000000000	-12.88606200000000	0.00000000000000	0.00000000000000	-23.09398800000000	0.00000000000000	
20.45159400000000	5.02350400000000	185.75856200000001	-11.31899100000000	0.40583200000000	0.00000000000000	0.14878700000000	-67.57514300000000	719.68099900000004	-49.59197500000000	0.16086600000000	0.00000000000000	-0.05742800000000	0.00000000000000	-12.78281300000000	0.00000000000000	0.00000000000000	-22.86960000000000	0.00000000000000	
